<svg width="142" height="14" viewBox="0 0 142 14" fill="none" xmlns="http://www.w3.org/2000/svg">
<path d="M7.63574 6.92578C7.63574 7.61849 7.43522 8.14941 7.03418 8.51855C6.6377 8.8877 6.07487 9.07227 5.3457 9.07227C4.61654 9.07227 4.03548 8.83073 3.60254 8.34766C3.17415 7.86003 2.95996 7.20605 2.95996 6.38574V5.61328C2.95996 4.82031 3.17643 4.18229 3.60938 3.69922C4.04688 3.21159 4.62565 2.96777 5.3457 2.96777C6.08854 2.96777 6.65592 3.1569 7.04785 3.53516C7.44434 3.90885 7.64258 4.43522 7.64258 5.11426H6.57617C6.57617 4.67676 6.47135 4.36458 6.26172 4.17773C6.05208 3.98633 5.74674 3.89062 5.3457 3.89062C4.92643 3.89062 4.60059 4.04557 4.36816 4.35547C4.1403 4.66081 4.02409 5.07096 4.01953 5.58594V6.42676C4.01953 6.95996 4.13574 7.38151 4.36816 7.69141C4.60059 7.99674 4.92643 8.14941 5.3457 8.14941C5.7513 8.14941 6.05664 8.05827 6.26172 7.87598C6.4668 7.68913 6.56934 7.3724 6.56934 6.92578H7.63574ZM9.4541 6.0166C9.4541 5.26009 9.2832 4.55827 8.94141 3.91113C8.59961 3.25944 8.11654 2.73991 7.49219 2.35254C6.86784 1.96061 6.18424 1.76465 5.44141 1.76465C4.7168 1.76465 4.04232 1.9515 3.41797 2.3252C2.79818 2.69889 2.31055 3.21387 1.95508 3.87012C1.59961 4.52637 1.42188 5.24186 1.42188 6.0166C1.42188 6.79134 1.59733 7.50684 1.94824 8.16309C2.30371 8.81934 2.79134 9.33887 3.41113 9.72168C4.03548 10.0999 4.71224 10.2891 5.44141 10.2891C6.17057 10.2891 6.84733 10.0954 7.47168 9.70801C8.10059 9.32064 8.58822 8.79883 8.93457 8.14258C9.28092 7.48633 9.4541 6.77767 9.4541 6.0166ZM0.587891 6.0166C0.587891 5.09603 0.799805 4.24154 1.22363 3.45312C1.65202 2.66471 2.24219 2.04492 2.99414 1.59375C3.75065 1.13802 4.56641 0.910156 5.44141 0.910156C6.31641 0.910156 7.12988 1.13802 7.88184 1.59375C8.63835 2.04492 9.22852 2.66471 9.65234 3.45312C10.0807 4.24154 10.2949 5.09603 10.2949 6.0166C10.2949 6.94629 10.0785 7.80762 9.64551 8.60059C9.21257 9.389 8.62012 10.0088 7.86816 10.46C7.12077 10.9111 6.31185 11.1367 5.44141 11.1367C4.56185 11.1367 3.74609 10.9089 2.99414 10.4531C2.24674 9.9974 1.65885 9.37533 1.23047 8.58691C0.802083 7.7985 0.587891 6.94173 0.587891 6.0166ZM18.4775 11H11.6553V9.64648L14.875 6.21484C15.3171 5.73177 15.6429 5.31022 15.8525 4.9502C16.0667 4.59017 16.1738 4.24837 16.1738 3.9248C16.1738 3.48275 16.0622 3.13639 15.8389 2.88574C15.6156 2.63053 15.2965 2.50293 14.8818 2.50293C14.4352 2.50293 14.082 2.65788 13.8223 2.96777C13.5671 3.27311 13.4395 3.67643 13.4395 4.17773H11.457C11.457 3.57161 11.6006 3.0179 11.8877 2.5166C12.1794 2.0153 12.5895 1.62337 13.1182 1.34082C13.6468 1.05371 14.2461 0.910156 14.916 0.910156C15.9414 0.910156 16.7367 1.15625 17.3018 1.64844C17.8714 2.14062 18.1562 2.83561 18.1562 3.7334C18.1562 4.22559 18.0286 4.72689 17.7734 5.2373C17.5182 5.74772 17.0807 6.34245 16.4609 7.02148L14.1982 9.40723H18.4775V11ZM26.3936 6.88477C26.3936 8.26107 26.1087 9.3138 25.5391 10.043C24.9694 10.7721 24.1354 11.1367 23.0371 11.1367C21.9525 11.1367 21.123 10.779 20.5488 10.0635C19.9746 9.34798 19.6807 8.32259 19.667 6.9873V5.15527C19.667 3.7653 19.9541 2.71029 20.5283 1.99023C21.1071 1.27018 21.9388 0.910156 23.0234 0.910156C24.1081 0.910156 24.9375 1.2679 25.5117 1.9834C26.0859 2.69434 26.3799 3.71745 26.3936 5.05273V6.88477ZM24.418 4.875C24.418 4.05013 24.304 3.45085 24.0762 3.07715C23.8529 2.69889 23.502 2.50977 23.0234 2.50977C22.5586 2.50977 22.2145 2.68978 21.9912 3.0498C21.7725 3.40527 21.6562 3.96354 21.6426 4.72461V7.14453C21.6426 7.95573 21.752 8.55957 21.9707 8.95605C22.194 9.34798 22.5495 9.54395 23.0371 9.54395C23.5202 9.54395 23.8688 9.35482 24.083 8.97656C24.2972 8.59831 24.4089 8.01953 24.418 7.24023V4.875ZM34.5557 11H27.7334V9.64648L30.9531 6.21484C31.3952 5.73177 31.721 5.31022 31.9307 4.9502C32.1449 4.59017 32.252 4.24837 32.252 3.9248C32.252 3.48275 32.1403 3.13639 31.917 2.88574C31.6937 2.63053 31.3747 2.50293 30.96 2.50293C30.5133 2.50293 30.1602 2.65788 29.9004 2.96777C29.6452 3.27311 29.5176 3.67643 29.5176 4.17773H27.5352C27.5352 3.57161 27.6787 3.0179 27.9658 2.5166C28.2575 2.0153 28.6676 1.62337 29.1963 1.34082C29.7249 1.05371 30.3242 0.910156 30.9941 0.910156C32.0195 0.910156 32.8148 1.15625 33.3799 1.64844C33.9495 2.14062 34.2344 2.83561 34.2344 3.7334C34.2344 4.22559 34.1068 4.72689 33.8516 5.2373C33.5964 5.74772 33.1589 6.34245 32.5391 7.02148L30.2764 9.40723H34.5557V11ZM40.5713 11H38.5957V3.38477L36.2373 4.11621V2.50977L40.3594 1.0332H40.5713V11ZM47.5098 11V1.04688H50.5723C51.4473 1.04688 52.2288 1.24512 52.917 1.6416C53.6097 2.03353 54.1497 2.59408 54.5371 3.32324C54.9245 4.04785 55.1182 4.87272 55.1182 5.79785V6.25586C55.1182 7.18099 54.9268 8.00358 54.5439 8.72363C54.1657 9.44368 53.6302 10.002 52.9375 10.3984C52.2448 10.7949 51.4632 10.9954 50.5928 11H47.5098ZM49.5605 2.70801V9.35254H50.5518C51.3538 9.35254 51.9668 9.09049 52.3906 8.56641C52.8145 8.04232 53.0309 7.29264 53.04 6.31738V5.79102C53.04 4.7793 52.8304 4.01367 52.4111 3.49414C51.9919 2.97005 51.3789 2.70801 50.5723 2.70801H49.5605ZM58.5703 11H56.5879V3.60352H58.5703V11ZM56.4717 1.68945C56.4717 1.39323 56.5697 1.14941 56.7656 0.958008C56.9661 0.766602 57.2373 0.670898 57.5791 0.670898C57.9163 0.670898 58.1852 0.766602 58.3857 0.958008C58.5863 1.14941 58.6865 1.39323 58.6865 1.68945C58.6865 1.99023 58.584 2.23633 58.3789 2.42773C58.1784 2.61914 57.9118 2.71484 57.5791 2.71484C57.2464 2.71484 56.9775 2.61914 56.7725 2.42773C56.5719 2.23633 56.4717 1.99023 56.4717 1.68945ZM59.917 7.24707C59.917 6.1123 60.1859 5.19857 60.7236 4.50586C61.266 3.81315 61.9951 3.4668 62.9111 3.4668C63.7223 3.4668 64.3535 3.74479 64.8047 4.30078L64.8867 3.60352H66.6777V10.7539C66.6777 11.401 66.5296 11.9639 66.2334 12.4424C65.9417 12.9209 65.5293 13.2855 64.9961 13.5361C64.4629 13.7868 63.8385 13.9121 63.123 13.9121C62.5807 13.9121 62.0521 13.8027 61.5371 13.584C61.0221 13.3698 60.6325 13.0918 60.3682 12.75L61.2432 11.5469C61.7354 12.0983 62.3324 12.374 63.0342 12.374C63.5583 12.374 63.9661 12.2327 64.2578 11.9502C64.5495 11.6722 64.6953 11.2757 64.6953 10.7607V10.3643C64.2396 10.8792 63.6403 11.1367 62.8975 11.1367C62.0088 11.1367 61.2887 10.7904 60.7373 10.0977C60.1904 9.40039 59.917 8.47754 59.917 7.3291V7.24707ZM61.8926 7.39062C61.8926 8.06055 62.027 8.58691 62.2959 8.96973C62.5648 9.34798 62.9339 9.53711 63.4033 9.53711C64.0049 9.53711 64.4355 9.31152 64.6953 8.86035V5.75C64.431 5.29883 64.0049 5.07324 63.417 5.07324C62.943 5.07324 62.5693 5.26693 62.2959 5.6543C62.027 6.04167 61.8926 6.62044 61.8926 7.39062ZM70.2871 11H68.3047V3.60352H70.2871V11ZM68.1885 1.68945C68.1885 1.39323 68.2865 1.14941 68.4824 0.958008C68.6829 0.766602 68.9541 0.670898 69.2959 0.670898C69.6331 0.670898 69.902 0.766602 70.1025 0.958008C70.3031 1.14941 70.4033 1.39323 70.4033 1.68945C70.4033 1.99023 70.3008 2.23633 70.0957 2.42773C69.8952 2.61914 69.6286 2.71484 69.2959 2.71484C68.9632 2.71484 68.6943 2.61914 68.4893 2.42773C68.2887 2.23633 68.1885 1.99023 68.1885 1.68945ZM74.2861 1.78516V3.60352H75.5508V5.05273H74.2861V8.74414C74.2861 9.01758 74.3385 9.21354 74.4434 9.33203C74.5482 9.45052 74.7487 9.50977 75.0449 9.50977C75.2637 9.50977 75.4574 9.49382 75.626 9.46191V10.959C75.2386 11.0775 74.8398 11.1367 74.4297 11.1367C73.0443 11.1367 72.3379 10.4372 72.3105 9.03809V5.05273H71.2305V3.60352H72.3105V1.78516H74.2861ZM80.9375 11C80.8464 10.8223 80.7803 10.6012 80.7393 10.3369C80.2607 10.8701 79.6387 11.1367 78.873 11.1367C78.1484 11.1367 77.5469 10.9271 77.0684 10.5078C76.5944 10.0885 76.3574 9.5599 76.3574 8.92188C76.3574 8.13802 76.6468 7.53646 77.2256 7.11719C77.8089 6.69792 78.6497 6.486 79.748 6.48145H80.6572V6.05762C80.6572 5.71582 80.5684 5.44238 80.3906 5.2373C80.2174 5.03223 79.9417 4.92969 79.5635 4.92969C79.2308 4.92969 78.9688 5.00944 78.7773 5.16895C78.5905 5.32845 78.4971 5.5472 78.4971 5.8252H76.5215C76.5215 5.39681 76.6536 5.00033 76.918 4.63574C77.1823 4.27116 77.556 3.98633 78.0391 3.78125C78.5221 3.57161 79.0645 3.4668 79.666 3.4668C80.5775 3.4668 81.2998 3.69694 81.833 4.15723C82.3708 4.61296 82.6396 5.25553 82.6396 6.08496V9.29102C82.6442 9.99284 82.7422 10.5238 82.9336 10.8838V11H80.9375ZM79.3037 9.62598C79.5954 9.62598 79.8643 9.56217 80.1104 9.43457C80.3564 9.30241 80.5387 9.12695 80.6572 8.9082V7.63672H79.9189C78.93 7.63672 78.4036 7.97852 78.3398 8.66211L78.333 8.77832C78.333 9.02441 78.4196 9.22721 78.5928 9.38672C78.766 9.54622 79.0029 9.62598 79.3037 9.62598ZM86.2422 11H84.2598V0.5H86.2422V11ZM91.4922 11V1.04688H94.9785C96.1862 1.04688 97.1022 1.2793 97.7266 1.74414C98.3509 2.20443 98.6631 2.88118 98.6631 3.77441C98.6631 4.26204 98.5378 4.69271 98.2871 5.06641C98.0365 5.43555 97.6878 5.70671 97.2412 5.87988C97.7516 6.00749 98.1527 6.26497 98.4443 6.65234C98.7406 7.03971 98.8887 7.51367 98.8887 8.07422C98.8887 9.03125 98.5833 9.75586 97.9727 10.248C97.362 10.7402 96.4915 10.9909 95.3613 11H91.4922ZM93.543 6.66602V9.35254H95.2998C95.7829 9.35254 96.1589 9.23861 96.4277 9.01074C96.7012 8.77832 96.8379 8.45931 96.8379 8.05371C96.8379 7.14225 96.3662 6.67969 95.4229 6.66602H93.543ZM93.543 5.2168H95.0605C96.0951 5.19857 96.6123 4.78613 96.6123 3.97949C96.6123 3.52832 96.4801 3.20475 96.2158 3.00879C95.9561 2.80827 95.5436 2.70801 94.9785 2.70801H93.543V5.2168ZM99.9961 7.2334C99.9961 6.49967 100.137 5.8457 100.42 5.27148C100.702 4.69727 101.108 4.25293 101.637 3.93848C102.17 3.62402 102.787 3.4668 103.489 3.4668C104.487 3.4668 105.301 3.77214 105.93 4.38281C106.563 4.99349 106.916 5.82292 106.989 6.87109L107.003 7.37695C107.003 8.51172 106.686 9.42318 106.053 10.1113C105.419 10.7949 104.569 11.1367 103.503 11.1367C102.437 11.1367 101.584 10.7949 100.946 10.1113C100.313 9.42773 99.9961 8.49805 99.9961 7.32227V7.2334ZM101.972 7.37695C101.972 8.07878 102.104 8.61654 102.368 8.99023C102.632 9.35938 103.011 9.54395 103.503 9.54395C103.981 9.54395 104.355 9.36165 104.624 8.99707C104.893 8.62793 105.027 8.04004 105.027 7.2334C105.027 6.54525 104.893 6.01204 104.624 5.63379C104.355 5.25553 103.977 5.06641 103.489 5.06641C103.006 5.06641 102.632 5.25553 102.368 5.63379C102.104 6.00749 101.972 6.58854 101.972 7.37695ZM107.912 7.2334C107.912 6.49967 108.053 5.8457 108.336 5.27148C108.618 4.69727 109.024 4.25293 109.553 3.93848C110.086 3.62402 110.703 3.4668 111.405 3.4668C112.403 3.4668 113.217 3.77214 113.846 4.38281C114.479 4.99349 114.832 5.82292 114.905 6.87109L114.919 7.37695C114.919 8.51172 114.602 9.42318 113.969 10.1113C113.335 10.7949 112.485 11.1367 111.419 11.1367C110.353 11.1367 109.5 10.7949 108.862 10.1113C108.229 9.42773 107.912 8.49805 107.912 7.32227V7.2334ZM109.888 7.37695C109.888 8.07878 110.02 8.61654 110.284 8.99023C110.549 9.35938 110.927 9.54395 111.419 9.54395C111.897 9.54395 112.271 9.36165 112.54 8.99707C112.809 8.62793 112.943 8.04004 112.943 7.2334C112.943 6.54525 112.809 6.01204 112.54 5.63379C112.271 5.25553 111.893 5.06641 111.405 5.06641C110.922 5.06641 110.549 5.25553 110.284 5.63379C110.02 6.00749 109.888 6.58854 109.888 7.37695ZM118.822 8.0332L118.111 8.74414V11H116.136V0.5H118.111V6.31738L118.494 5.8252L120.388 3.60352H122.76L120.087 6.68652L122.992 11H120.723L118.822 8.0332ZM125.699 11H123.717V3.60352H125.699V11ZM123.601 1.68945C123.601 1.39323 123.699 1.14941 123.895 0.958008C124.095 0.766602 124.366 0.670898 124.708 0.670898C125.045 0.670898 125.314 0.766602 125.515 0.958008C125.715 1.14941 125.815 1.39323 125.815 1.68945C125.815 1.99023 125.713 2.23633 125.508 2.42773C125.307 2.61914 125.041 2.71484 124.708 2.71484C124.375 2.71484 124.106 2.61914 123.901 2.42773C123.701 2.23633 123.601 1.99023 123.601 1.68945ZM129.151 3.60352L129.213 4.45801C129.742 3.7972 130.45 3.4668 131.339 3.4668C132.123 3.4668 132.706 3.69694 133.089 4.15723C133.472 4.61751 133.668 5.30566 133.677 6.22168V11H131.701V6.26953C131.701 5.85026 131.61 5.5472 131.428 5.36035C131.245 5.16895 130.942 5.07324 130.519 5.07324C129.963 5.07324 129.546 5.31022 129.268 5.78418V11H127.292V3.60352H129.151ZM134.894 7.24707C134.894 6.1123 135.162 5.19857 135.7 4.50586C136.243 3.81315 136.972 3.4668 137.888 3.4668C138.699 3.4668 139.33 3.74479 139.781 4.30078L139.863 3.60352H141.654V10.7539C141.654 11.401 141.506 11.9639 141.21 12.4424C140.918 12.9209 140.506 13.2855 139.973 13.5361C139.439 13.7868 138.815 13.9121 138.1 13.9121C137.557 13.9121 137.029 13.8027 136.514 13.584C135.999 13.3698 135.609 13.0918 135.345 12.75L136.22 11.5469C136.712 12.0983 137.309 12.374 138.011 12.374C138.535 12.374 138.943 12.2327 139.234 11.9502C139.526 11.6722 139.672 11.2757 139.672 10.7607V10.3643C139.216 10.8792 138.617 11.1367 137.874 11.1367C136.985 11.1367 136.265 10.7904 135.714 10.0977C135.167 9.40039 134.894 8.47754 134.894 7.3291V7.24707ZM136.869 7.39062C136.869 8.06055 137.004 8.58691 137.272 8.96973C137.541 9.34798 137.91 9.53711 138.38 9.53711C138.981 9.53711 139.412 9.31152 139.672 8.86035V5.75C139.408 5.29883 138.981 5.07324 138.394 5.07324C137.92 5.07324 137.546 5.26693 137.272 5.6543C137.004 6.04167 136.869 6.62044 136.869 7.39062Z" fill="white"/>
</svg>
