<svg width="24" height="22" viewBox="0 0 24 22" fill="none" xmlns="http://www.w3.org/2000/svg">
<path d="M21.5331 5.48279C21.5483 5.72341 21.5483 5.96407 21.5483 6.20469C21.5483 13.5437 16.5991 22 7.55333 22C4.7665 22 2.17768 21.089 0 19.5078C0.395955 19.5594 0.776628 19.5766 1.18782 19.5766C3.48728 19.5766 5.60407 18.7 7.29444 17.2047C5.13199 17.1531 3.31979 15.5547 2.69542 13.3547C3.00001 13.4062 3.30456 13.4406 3.62439 13.4406C4.066 13.4406 4.50766 13.3718 4.9188 13.2516C2.66499 12.7359 0.974582 10.5016 0.974582 7.80312V7.73439C1.62938 8.14689 2.39087 8.4047 3.19792 8.43904C1.87304 7.44214 1.00505 5.7406 1.00505 3.81559C1.00505 2.78436 1.24866 1.83904 1.67508 1.01404C4.09642 4.38278 7.73605 6.58275 11.8172 6.82341C11.7411 6.41091 11.6954 5.98127 11.6954 5.55157C11.6954 2.49216 13.8883 0 16.6142 0C18.0304 0 19.3096 0.670311 20.2081 1.75312C21.3198 1.51251 22.3858 1.04843 23.33 0.412503C22.9644 1.70159 22.1878 2.78441 21.1675 3.47186C22.1574 3.35161 23.1168 3.04216 24 2.61252C23.3301 3.71247 22.4924 4.69212 21.5331 5.48279Z" fill="white"/>
</svg>
