<svg width="25" height="24" viewBox="0 0 25 24" fill="none" xmlns="http://www.w3.org/2000/svg">
<path d="M12.5028 5.8467C8.95566 5.8467 6.09453 8.594 6.09453 12C6.09453 15.406 8.95566 18.1533 12.5028 18.1533C16.0499 18.1533 18.911 15.406 18.911 12C18.911 8.594 16.0499 5.8467 12.5028 5.8467ZM12.5028 16.0004C10.2105 16.0004 8.33659 14.2064 8.33659 12C8.33659 9.7936 10.205 7.99955 12.5028 7.99955C14.8006 7.99955 16.669 9.7936 16.669 12C16.669 14.2064 14.795 16.0004 12.5028 16.0004V16.0004ZM20.6679 5.595C20.6679 6.39295 19.9986 7.03024 19.1732 7.03024C18.3422 7.03024 17.6785 6.38759 17.6785 5.595C17.6785 4.80241 18.3477 4.15977 19.1732 4.15977C19.9986 4.15977 20.6679 4.80241 20.6679 5.595ZM24.9122 7.05166C24.8173 5.12909 24.36 3.42609 22.8932 2.02298C21.432 0.619882 19.6584 0.180743 17.6562 0.0843468C15.5926 -0.0281156 9.40742 -0.0281156 7.34384 0.0843468C5.34718 0.175388 3.57362 0.614526 2.1068 2.01763C0.639989 3.42073 0.188232 5.12373 0.0878416 7.0463C-0.0292805 9.02778 -0.0292805 14.9669 0.0878416 16.9483C0.182655 18.8709 0.639989 20.5739 2.1068 21.977C3.57362 23.3801 5.34161 23.8193 7.34384 23.9157C9.40742 24.0281 15.5926 24.0281 17.6562 23.9157C19.6584 23.8246 21.432 23.3855 22.8932 21.977C24.3544 20.5739 24.8118 18.8709 24.9122 16.9483C25.0293 14.9669 25.0293 9.03314 24.9122 7.05166V7.05166ZM22.2462 19.0744C21.8112 20.1241 20.969 20.9327 19.8703 21.3558C18.225 21.9824 14.321 21.8378 12.5028 21.8378C10.6846 21.8378 6.77496 21.977 5.13525 21.3558C4.04211 20.9381 3.19994 20.1294 2.75934 19.0744C2.1068 17.4946 2.25739 13.7458 2.25739 12C2.25739 10.2542 2.11238 6.50006 2.75934 4.92558C3.19437 3.87593 4.03653 3.06728 5.13525 2.6442C6.78054 2.01763 10.6846 2.16222 12.5028 2.16222C14.321 2.16222 18.2306 2.02298 19.8703 2.6442C20.9635 3.06192 21.8056 3.87058 22.2462 4.92558C22.8988 6.50541 22.7482 10.2542 22.7482 12C22.7482 13.7458 22.8988 17.4999 22.2462 19.0744Z" fill="white"/>
</svg>

