<svg width="217" height="20" viewBox="0 0 217 20" fill="none" xmlns="http://www.w3.org/2000/svg">
<path d="M9.14062 11.4355C9.29036 10.2116 8.63607 9.31315 7.17773 8.74023L5.3125 8.06641L4.70703 7.82227C2.85807 7.03451 2.00195 5.8724 2.13867 4.33594C2.19727 3.58073 2.46419 2.91667 2.93945 2.34375C3.41471 1.77083 4.03971 1.33138 4.81445 1.02539C5.5957 0.712891 6.42253 0.566406 7.29492 0.585938C8.13477 0.605469 8.88346 0.800781 9.54102 1.17188C10.2051 1.53646 10.6999 2.03776 11.0254 2.67578C11.3574 3.3138 11.4876 4.0332 11.416 4.83398H10.2148C10.306 3.87044 10.0781 3.09896 9.53125 2.51953C8.99089 1.9401 8.22591 1.63737 7.23633 1.61133C6.20768 1.59831 5.32552 1.83594 4.58984 2.32422C3.86068 2.80599 3.44401 3.4668 3.33984 4.30664C3.25521 4.97721 3.45052 5.55013 3.92578 6.02539C4.40755 6.49414 5.24089 6.9043 6.42578 7.25586C7.9362 7.73763 8.98438 8.3138 9.57031 8.98438C10.1628 9.65495 10.4199 10.4622 10.3418 11.4062C10.2702 12.1875 9.99674 12.8678 9.52148 13.4473C9.04622 14.0202 8.41146 14.4596 7.61719 14.7656C6.82292 15.0716 5.97005 15.2148 5.05859 15.1953C4.15365 15.1888 3.33659 15.0033 2.60742 14.6387C1.88477 14.2741 1.34115 13.776 0.976562 13.1445C0.61849 12.5065 0.47526 11.7708 0.546875 10.9375H1.73828C1.64062 11.9271 1.9043 12.7148 2.5293 13.3008C3.16081 13.8802 4.02344 14.1764 5.11719 14.1895C6.21094 14.2025 7.12891 13.9551 7.87109 13.4473C8.61979 12.9395 9.04297 12.2689 9.14062 11.4355ZM16.2402 15.1953C15.3939 15.1823 14.6615 14.9479 14.043 14.4922C13.4245 14.0299 12.9688 13.4049 12.6758 12.6172C12.3893 11.8229 12.2884 10.9668 12.373 10.0488L12.4023 9.7168C12.4935 8.74023 12.7832 7.8125 13.2715 6.93359C13.7598 6.04818 14.3783 5.37435 15.127 4.91211C15.8757 4.44336 16.6764 4.21875 17.5293 4.23828C18.3171 4.2513 18.9811 4.46615 19.5215 4.88281C20.0684 5.29948 20.4655 5.87891 20.7129 6.62109C20.9603 7.36328 21.0384 8.18359 20.9473 9.08203L20.8691 9.79492H13.5547L13.5254 10.0293C13.4277 10.7389 13.4798 11.4193 13.6816 12.0703C13.8835 12.7148 14.2122 13.2292 14.668 13.6133C15.1302 13.9909 15.6836 14.1862 16.3281 14.1992C16.9531 14.2188 17.5163 14.0983 18.0176 13.8379C18.5189 13.5775 18.9811 13.2292 19.4043 12.793L20.0879 13.3496C19.6126 13.9616 19.0462 14.4271 18.3887 14.7461C17.7376 15.0586 17.0215 15.2083 16.2402 15.1953ZM17.4707 5.23438C16.6243 5.20182 15.8659 5.5013 15.1953 6.13281C14.5247 6.76432 14.0202 7.65299 13.6816 8.79883L19.8145 8.80859L19.8438 8.66211C19.9609 7.73763 19.7982 6.94336 19.3555 6.2793C18.9128 5.60872 18.2845 5.26042 17.4707 5.23438ZM25.1172 4.43359L24.7656 6.24023C25.2344 5.58919 25.7747 5.09115 26.3867 4.74609C27.0052 4.39453 27.666 4.22526 28.3691 4.23828C29.3848 4.26432 30.1237 4.61914 30.5859 5.30273C31.0482 5.98633 31.2109 6.92708 31.0742 8.125L29.9219 15H28.7695L29.9219 8.10547C29.9609 7.73438 29.9674 7.3763 29.9414 7.03125C29.8307 5.8724 29.1992 5.27669 28.0469 5.24414C27.3633 5.23112 26.7253 5.4362 26.1328 5.85938C25.5404 6.27604 25.0195 6.90755 24.5703 7.75391L23.3203 15H22.168L24.0039 4.43359H25.1172ZM37.0215 1.72852L36.5527 4.43359H38.6719L38.5059 5.39062H36.3867L35.2148 12.4414L35.1953 13.0469C35.1953 13.7565 35.5208 14.1211 36.1719 14.1406C36.3737 14.1471 36.6895 14.1243 37.1191 14.0723L37.0703 15.0293C36.6862 15.14 36.2956 15.1888 35.8984 15.1758C35.2148 15.1628 34.7168 14.9251 34.4043 14.4629C34.0918 13.9941 33.9779 13.3171 34.0625 12.4316L35.2246 5.39062H33.3301L33.5059 4.43359H35.3809L35.8594 1.72852H37.0215ZM40.5566 15H39.3848L41.2305 4.43359H42.3926L40.5566 15ZM41.5527 1.37695C41.5853 0.953776 41.8652 0.686849 42.3926 0.576172C42.6465 0.621745 42.8255 0.703125 42.9297 0.820312C43.0404 0.93099 43.112 1.11654 43.1445 1.37695C43.0794 1.62435 42.985 1.80664 42.8613 1.92383C42.7376 2.03451 42.5521 2.11589 42.3047 2.16797C41.7773 2.08984 41.5267 1.82617 41.5527 1.37695ZM47.8027 1.72852L47.334 4.43359H49.4531L49.2871 5.39062H47.168L45.9961 12.4414L45.9766 13.0469C45.9766 13.7565 46.3021 14.1211 46.9531 14.1406C47.1549 14.1471 47.4707 14.1243 47.9004 14.0723L47.8516 15.0293C47.4674 15.14 47.0768 15.1888 46.6797 15.1758C45.9961 15.1628 45.498 14.9251 45.1855 14.4629C44.873 13.9941 44.7591 13.3171 44.8438 12.4316L46.0059 5.39062H44.1113L44.2871 4.43359H46.1621L46.6406 1.72852H47.8027ZM54.2285 15.1953C53.3822 15.1823 52.6497 14.9479 52.0312 14.4922C51.4128 14.0299 50.957 13.4049 50.6641 12.6172C50.3776 11.8229 50.2767 10.9668 50.3613 10.0488L50.3906 9.7168C50.4818 8.74023 50.7715 7.8125 51.2598 6.93359C51.748 6.04818 52.3665 5.37435 53.1152 4.91211C53.8639 4.44336 54.6647 4.21875 55.5176 4.23828C56.3053 4.2513 56.9694 4.46615 57.5098 4.88281C58.0566 5.29948 58.4538 5.87891 58.7012 6.62109C58.9486 7.36328 59.0267 8.18359 58.9355 9.08203L58.8574 9.79492H51.543L51.5137 10.0293C51.416 10.7389 51.4681 11.4193 51.6699 12.0703C51.8717 12.7148 52.2005 13.2292 52.6562 13.6133C53.1185 13.9909 53.6719 14.1862 54.3164 14.1992C54.9414 14.2188 55.5046 14.0983 56.0059 13.8379C56.5072 13.5775 56.9694 13.2292 57.3926 12.793L58.0762 13.3496C57.6009 13.9616 57.0345 14.4271 56.377 14.7461C55.7259 15.0586 55.0098 15.2083 54.2285 15.1953ZM55.459 5.23438C54.6126 5.20182 53.8542 5.5013 53.1836 6.13281C52.513 6.76432 52.0085 7.65299 51.6699 8.79883L57.8027 8.80859L57.832 8.66211C57.9492 7.73763 57.7865 6.94336 57.3438 6.2793C56.901 5.60872 56.2728 5.26042 55.459 5.23438ZM69.0723 14.2188C69.8405 14.2448 70.5176 14.0332 71.1035 13.584C71.696 13.1283 72.0898 12.5163 72.2852 11.748H73.3887C73.1934 12.7962 72.679 13.6426 71.8457 14.2871C71.0189 14.9251 70.0749 15.2311 69.0137 15.2051C68.1608 15.1855 67.4447 14.9512 66.8652 14.502C66.2858 14.0527 65.8659 13.431 65.6055 12.6367C65.3516 11.8424 65.2702 10.9473 65.3613 9.95117L65.4004 9.53125C65.4785 8.84766 65.6445 8.18359 65.8984 7.53906C66.1589 6.89453 66.5039 6.32487 66.9336 5.83008C67.3633 5.32878 67.8743 4.9349 68.4668 4.64844C69.0658 4.35547 69.7396 4.21875 70.4883 4.23828C71.569 4.26432 72.4284 4.62891 73.0664 5.33203C73.7044 6.03516 74.0039 6.92708 73.9648 8.00781L72.8613 7.99805C72.8743 7.18424 72.6628 6.52669 72.2266 6.02539C71.7904 5.52409 71.1947 5.26042 70.4395 5.23438C69.6322 5.20833 68.9193 5.44271 68.3008 5.9375C67.6823 6.43229 67.2168 7.13216 66.9043 8.03711C66.5918 8.94206 66.4453 9.90234 66.4648 10.918C66.4844 11.9661 66.7188 12.7734 67.168 13.3398C67.6172 13.8997 68.252 14.1927 69.0723 14.2188ZM75.3613 9.61914C75.4785 8.59701 75.791 7.66276 76.2988 6.81641C76.8066 5.96354 77.4382 5.31576 78.1934 4.87305C78.9551 4.43034 79.7786 4.21875 80.6641 4.23828C81.5365 4.2513 82.2786 4.49219 82.8906 4.96094C83.5091 5.42318 83.9583 6.05794 84.2383 6.86523C84.5247 7.66602 84.6224 8.55469 84.5312 9.53125L84.5117 9.7168C84.3164 11.3835 83.724 12.7214 82.7344 13.7305C81.7513 14.7396 80.5697 15.2279 79.1895 15.1953C78.0046 15.1758 77.0573 14.7396 76.3477 13.8867C75.638 13.0339 75.2897 11.9076 75.3027 10.5078L75.332 9.95117L75.3613 9.61914ZM76.4941 9.95117C76.4095 10.7259 76.4648 11.4421 76.6602 12.0996C76.862 12.7507 77.181 13.2617 77.6172 13.6328C78.0534 14.0039 78.597 14.1992 79.248 14.2188C79.9512 14.2318 80.5924 14.0527 81.1719 13.6816C81.7578 13.3105 82.2396 12.7865 82.6172 12.1094C82.9948 11.4323 83.2389 10.6836 83.3496 9.86328L83.3789 9.54102C83.4961 8.28451 83.3008 7.25911 82.793 6.46484C82.2917 5.66406 81.5625 5.25391 80.6055 5.23438C79.5638 5.20182 78.6621 5.60547 77.9004 6.44531C77.1452 7.27865 76.6829 8.38867 76.5137 9.77539L76.4941 9.95117ZM88.9551 4.43359L88.623 6.15234C89.5736 4.85026 90.7682 4.21224 92.207 4.23828C92.9492 4.2513 93.5645 4.43685 94.0527 4.79492C94.5475 5.15299 94.8535 5.65104 94.9707 6.28906C95.4525 5.63151 96.0124 5.1237 96.6504 4.76562C97.2949 4.40104 97.9948 4.22526 98.75 4.23828C99.7526 4.25781 100.495 4.58984 100.977 5.23438C101.465 5.8724 101.667 6.75781 101.582 7.89062L101.562 8.11523L100.4 15H99.2383L100.391 8.0957C100.43 7.71159 100.433 7.34701 100.4 7.00195C100.27 5.84961 99.6126 5.26367 98.4277 5.24414C97.6335 5.23112 96.901 5.49154 96.2305 6.02539C95.5664 6.55273 95.1497 7.21354 94.9805 8.00781L93.7695 15H92.6074L93.7793 8.00781C93.9681 6.21094 93.3073 5.28971 91.7969 5.24414C91.0482 5.23112 90.3516 5.46549 89.707 5.94727C89.0625 6.42904 88.6296 7.02799 88.4082 7.74414L87.1582 15H85.9961L87.832 4.43359H88.9551ZM103.643 9.61914C103.76 8.59701 104.072 7.66276 104.58 6.81641C105.088 5.96354 105.719 5.31576 106.475 4.87305C107.236 4.43034 108.06 4.21875 108.945 4.23828C109.818 4.2513 110.56 4.49219 111.172 4.96094C111.79 5.42318 112.24 6.05794 112.52 6.86523C112.806 7.66602 112.904 8.55469 112.812 9.53125L112.793 9.7168C112.598 11.3835 112.005 12.7214 111.016 13.7305C110.033 14.7396 108.851 15.2279 107.471 15.1953C106.286 15.1758 105.339 14.7396 104.629 13.8867C103.919 13.0339 103.571 11.9076 103.584 10.5078L103.613 9.95117L103.643 9.61914ZM104.775 9.95117C104.691 10.7259 104.746 11.4421 104.941 12.0996C105.143 12.7507 105.462 13.2617 105.898 13.6328C106.335 14.0039 106.878 14.1992 107.529 14.2188C108.232 14.2318 108.874 14.0527 109.453 13.6816C110.039 13.3105 110.521 12.7865 110.898 12.1094C111.276 11.4323 111.52 10.6836 111.631 9.86328L111.66 9.54102C111.777 8.28451 111.582 7.25911 111.074 6.46484C110.573 5.66406 109.844 5.25391 108.887 5.23438C107.845 5.20182 106.943 5.60547 106.182 6.44531C105.426 7.27865 104.964 8.38867 104.795 9.77539L104.775 9.95117ZM123.35 15.1953C122.503 15.1823 121.771 14.9479 121.152 14.4922C120.534 14.0299 120.078 13.4049 119.785 12.6172C119.499 11.8229 119.398 10.9668 119.482 10.0488L119.512 9.7168C119.603 8.74023 119.893 7.8125 120.381 6.93359C120.869 6.04818 121.488 5.37435 122.236 4.91211C122.985 4.44336 123.786 4.21875 124.639 4.23828C125.426 4.2513 126.09 4.46615 126.631 4.88281C127.178 5.29948 127.575 5.87891 127.822 6.62109C128.07 7.36328 128.148 8.18359 128.057 9.08203L127.979 9.79492H120.664L120.635 10.0293C120.537 10.7389 120.589 11.4193 120.791 12.0703C120.993 12.7148 121.322 13.2292 121.777 13.6133C122.24 13.9909 122.793 14.1862 123.438 14.1992C124.062 14.2188 124.626 14.0983 125.127 13.8379C125.628 13.5775 126.09 13.2292 126.514 12.793L127.197 13.3496C126.722 13.9616 126.156 14.4271 125.498 14.7461C124.847 15.0586 124.131 15.2083 123.35 15.1953ZM124.58 5.23438C123.734 5.20182 122.975 5.5013 122.305 6.13281C121.634 6.76432 121.13 7.65299 120.791 8.79883L126.924 8.80859L126.953 8.66211C127.07 7.73763 126.908 6.94336 126.465 6.2793C126.022 5.60872 125.394 5.26042 124.58 5.23438ZM132.227 4.43359L131.875 6.24023C132.344 5.58919 132.884 5.09115 133.496 4.74609C134.115 4.39453 134.775 4.22526 135.479 4.23828C136.494 4.26432 137.233 4.61914 137.695 5.30273C138.158 5.98633 138.32 6.92708 138.184 8.125L137.031 15H135.879L137.031 8.10547C137.07 7.73438 137.077 7.3763 137.051 7.03125C136.94 5.8724 136.309 5.27669 135.156 5.24414C134.473 5.23112 133.835 5.4362 133.242 5.85938C132.65 6.27604 132.129 6.90755 131.68 7.75391L130.43 15H129.277L131.113 4.43359H132.227ZM148.955 1.72852L148.486 4.43359H150.605L150.439 5.39062H148.32L147.148 12.4414L147.129 13.0469C147.129 13.7565 147.454 14.1211 148.105 14.1406C148.307 14.1471 148.623 14.1243 149.053 14.0723L149.004 15.0293C148.62 15.14 148.229 15.1888 147.832 15.1758C147.148 15.1628 146.65 14.9251 146.338 14.4629C146.025 13.9941 145.911 13.3171 145.996 12.4316L147.158 5.39062H145.264L145.439 4.43359H147.314L147.793 1.72852H148.955ZM158.203 13.6719C157.363 14.7266 156.204 15.2344 154.727 15.1953C153.73 15.1758 152.988 14.8177 152.5 14.1211C152.012 13.418 151.836 12.4447 151.973 11.2012L153.105 4.43359H154.258L153.135 11.2305C153.096 11.582 153.092 11.9303 153.125 12.2754C153.171 12.8743 153.35 13.3366 153.662 13.6621C153.975 13.9876 154.404 14.1602 154.951 14.1797C155.732 14.2122 156.455 14.0332 157.119 13.6426C157.783 13.2454 158.213 12.7279 158.408 12.0898L159.717 4.43359H160.889L159.053 15H157.92L158.203 13.6719ZM169.385 6.2207C170.4 4.87305 171.598 4.21224 172.979 4.23828C173.994 4.26432 174.733 4.61914 175.195 5.30273C175.658 5.98633 175.82 6.92708 175.684 8.125L174.531 15H173.379L174.531 8.10547C174.57 7.73438 174.577 7.3763 174.551 7.03125C174.44 5.8724 173.809 5.27669 172.656 5.24414C171.973 5.23112 171.335 5.4362 170.742 5.85938C170.15 6.27604 169.629 6.90755 169.18 7.75391L167.93 15H166.777L169.385 0H170.537L169.385 6.2207ZM177.803 9.61914C177.92 8.59701 178.232 7.66276 178.74 6.81641C179.248 5.96354 179.88 5.31576 180.635 4.87305C181.396 4.43034 182.22 4.21875 183.105 4.23828C183.978 4.2513 184.72 4.49219 185.332 4.96094C185.951 5.42318 186.4 6.05794 186.68 6.86523C186.966 7.66602 187.064 8.55469 186.973 9.53125L186.953 9.7168C186.758 11.3835 186.165 12.7214 185.176 13.7305C184.193 14.7396 183.011 15.2279 181.631 15.1953C180.446 15.1758 179.499 14.7396 178.789 13.8867C178.079 13.0339 177.731 11.9076 177.744 10.5078L177.773 9.95117L177.803 9.61914ZM178.936 9.95117C178.851 10.7259 178.906 11.4421 179.102 12.0996C179.303 12.7507 179.622 13.2617 180.059 13.6328C180.495 14.0039 181.038 14.1992 181.689 14.2188C182.393 14.2318 183.034 14.0527 183.613 13.6816C184.199 13.3105 184.681 12.7865 185.059 12.1094C185.436 11.4323 185.68 10.6836 185.791 9.86328L185.82 9.54102C185.938 8.28451 185.742 7.25911 185.234 6.46484C184.733 5.66406 184.004 5.25391 183.047 5.23438C182.005 5.20182 181.104 5.60547 180.342 6.44531C179.587 7.27865 179.124 8.38867 178.955 9.77539L178.936 9.95117ZM193.76 4.22852C194.391 4.24805 194.967 4.39779 195.488 4.67773C196.009 4.95768 196.419 5.38411 196.719 5.95703L197.08 4.43359H198.164L196.387 14.8145C196.263 15.6999 195.983 16.4811 195.547 17.1582C195.111 17.8353 194.551 18.3529 193.867 18.7109C193.19 19.0755 192.435 19.2448 191.602 19.2188C190.938 19.2057 190.303 19.0397 189.697 18.7207C189.085 18.3952 188.594 17.9427 188.223 17.3633L188.945 16.6797C189.616 17.6888 190.492 18.2064 191.572 18.2324C192.536 18.2585 193.34 17.9655 193.984 17.3535C194.635 16.748 195.046 15.9212 195.215 14.873L195.469 13.6426C194.531 14.7168 193.402 15.2344 192.08 15.1953C191.09 15.1693 190.319 14.7917 189.766 14.0625C189.219 13.3268 188.932 12.3275 188.906 11.0645C188.867 9.89909 189.062 8.74674 189.492 7.60742C189.922 6.4681 190.505 5.61523 191.24 5.04883C191.982 4.47591 192.822 4.20247 193.76 4.22852ZM190.127 9.89258L190.068 10.8008C190.049 11.8685 190.234 12.6953 190.625 13.2812C191.016 13.8607 191.592 14.1634 192.354 14.1895C193.005 14.2155 193.613 14.0625 194.18 13.7305C194.746 13.3984 195.234 12.9069 195.645 12.2559L196.475 7.32422C196.299 6.69271 195.993 6.19466 195.557 5.83008C195.127 5.45898 194.574 5.26367 193.896 5.24414C192.9 5.21159 192.074 5.5957 191.416 6.39648C190.765 7.19727 190.335 8.36263 190.127 9.89258ZM205.928 15C205.895 14.7526 205.885 14.5052 205.898 14.2578L205.986 13.5254C205.498 14.0527 204.938 14.4661 204.307 14.7656C203.682 15.0651 203.005 15.2083 202.275 15.1953C201.383 15.1823 200.658 14.9023 200.098 14.3555C199.544 13.8021 199.297 13.1087 199.355 12.2754C199.408 11.5788 199.645 10.9766 200.068 10.4688C200.498 9.95443 201.107 9.55729 201.895 9.27734C202.682 8.99089 203.564 8.84766 204.541 8.84766L206.699 8.85742L206.875 7.64648C206.953 6.92383 206.797 6.3444 206.406 5.9082C206.016 5.47201 205.439 5.24089 204.678 5.21484C203.91 5.20182 203.239 5.39388 202.666 5.79102C202.1 6.18164 201.745 6.69922 201.602 7.34375H200.459C200.589 6.41927 201.064 5.66732 201.885 5.08789C202.705 4.50195 203.675 4.21549 204.795 4.22852C205.882 4.25456 206.719 4.58333 207.305 5.21484C207.897 5.84635 208.138 6.66667 208.027 7.67578L207.148 12.9883L207.07 13.8379C207.051 14.1895 207.077 14.5378 207.148 14.8828L207.129 15H205.928ZM202.471 14.1699C203.187 14.196 203.87 14.0267 204.521 13.6621C205.179 13.291 205.723 12.7669 206.152 12.0898L206.553 9.75586L204.688 9.74609C203.503 9.74609 202.536 9.95768 201.787 10.3809C201.038 10.7975 200.625 11.3965 200.547 12.1777C200.488 12.7507 200.638 13.2227 200.996 13.5938C201.361 13.9648 201.852 14.1569 202.471 14.1699ZM216.299 5.41992C216.045 5.36784 215.788 5.33854 215.527 5.33203C214.785 5.33203 214.105 5.5599 213.486 6.01562C212.868 6.46484 212.454 7.03776 212.246 7.73438L210.996 15H209.844L211.68 4.43359H212.822L212.471 6.11328C212.855 5.48828 213.317 5.01302 213.857 4.6875C214.404 4.36198 215.003 4.20573 215.654 4.21875C215.882 4.21875 216.149 4.26432 216.455 4.35547L216.299 5.41992Z" fill="#545776"/>
</svg>
