<svg width="20" height="20" viewBox="0 0 20 20" fill="none" xmlns="http://www.w3.org/2000/svg">
<path d="M15 17V20H13V17C13 15.9 12.1 15 11 15H8C5.2 15 3 12.8 3 10C3 8.8 3.4 7.8 4.1 6.9C1.8 6.5 0 4.4 0 2C0 1.3 0.2 0.6 0.4 0H2.8C2.3 0.5 2 1.2 2 2C2 3.7 3.3 5 5 5H8V7C6.3 7 5 8.3 5 10C5 11.7 6.3 13 8 13H11C13.2 13 15 14.8 15 17ZM15.9 6.9C18.2 6.5 20 4.4 20 2C20 1.3 19.8 0.6 19.6 0H17.2C17.7 0.5 18 1.2 18 2C18 3.7 16.7 5 15 5H13.8C13.9 5.3 14 5.6 14 6C14 7.7 12.7 9 11 9V11C13.8 11 16 13.2 16 16V20H18V16C18 13.3 16.5 11 14.2 9.8C15.1 9.1 15.7 8.1 15.9 6.9Z" fill="#1DBEB4"/>
</svg>
