<svg width="20" height="18" viewBox="0 0 20 18" fill="none" xmlns="http://www.w3.org/2000/svg">
<path d="M6.16 0L4.75 1.41L7.34 4H2C0.89 4 0 4.89 0 6V16C0 17.11 0.89 18 2 18H18C19.11 18 20 17.11 20 16V6C20 4.89 19.11 4 18 4H12.66L15.25 1.41L13.84 0L10 3.84L6.16 0ZM2 6H15V16H2V6ZM17.5 6C17.7652 6 18.0196 6.10536 18.2071 6.29289C18.3946 6.48043 18.5 6.73478 18.5 7C18.5 7.26522 18.3946 7.51957 18.2071 7.70711C18.0196 7.89464 17.7652 8 17.5 8C17.2348 8 16.9804 7.89464 16.7929 7.70711C16.6054 7.51957 16.5 7.26522 16.5 7C16.5 6.73478 16.6054 6.48043 16.7929 6.29289C16.9804 6.10536 17.2348 6 17.5 6ZM17.5 9C17.7652 9 18.0196 9.10536 18.2071 9.29289C18.3946 9.48043 18.5 9.73478 18.5 10C18.5 10.2652 18.3946 10.5196 18.2071 10.7071C18.0196 10.8946 17.7652 11 17.5 11C17.2348 11 16.9804 10.8946 16.7929 10.7071C16.6054 10.5196 16.5 10.2652 16.5 10C16.5 9.73478 16.6054 9.48043 16.7929 9.29289C16.9804 9.10536 17.2348 9 17.5 9Z" fill="#1DBEB4"/>
</svg>
