<svg width="19" height="20" viewBox="0 0 19 20" fill="none" xmlns="http://www.w3.org/2000/svg">
<path d="M18.09 11.95L15.76 12.57L13.76 11.44V8.56L15.76 7.43L18.09 8.05L18.61 6.12L16.84 5.65L17.3 3.88L15.37 3.36L14.75 5.69L12.75 6.82L10.3 5.38V3.12L12.01 1.41L10.59 0L9.3 1.29L8.01 0L6.59 1.41L8.3 3.12V5.38L5.8 6.82L3.8 5.69L3.22 3.36L1.3 3.88L1.77 5.65L0 6.12L0.52 8.05L2.85 7.43L4.85 8.56V11.45L2.85 12.58L0.52 11.96L0 13.89L1.77 14.36L1.3 16.12L3.23 16.64L3.85 14.31L5.85 13.18L8.3 14.62V16.88L6.59 18.59L8.01 20L9.3 18.71L10.59 20L12 18.59L10.3 16.88V14.62L12.8 13.17L14.8 14.3L15.42 16.63L17.3 16.12L16.83 14.35L18.6 13.88L18.09 11.95ZM6.8 8.56L9.3 7.11L11.8 8.56V11.44L9.3 12.89L6.8 11.44V8.56Z" fill="#1DBEB4"/>
</svg>
