<svg width="21" height="19" viewBox="0 0 21 19" fill="none" xmlns="http://www.w3.org/2000/svg">
<path d="M6.39092 0.0150431C7.57092 -0.154957 8.82092 1.13504 9.18092 2.91504C9.54092 4.68504 8.89092 6.26504 7.71092 6.44504C6.54092 6.62504 5.28092 5.33504 4.91092 3.55504C4.54092 1.78504 5.21092 0.205043 6.39092 0.0150431ZM13.5409 0.0150431C14.7309 0.205043 15.3909 1.78504 15.0409 3.55504C14.6609 5.33504 13.4109 6.62504 12.2309 6.44504C11.0409 6.26504 10.3909 4.68504 10.7609 2.91504C11.1209 1.13504 12.3709 -0.154957 13.5409 0.0150431ZM1.04092 4.61504C2.18092 4.12504 3.73092 5.01504 4.54092 6.56504C5.30092 8.14504 5.04092 9.80504 3.91092 10.295C2.78092 10.785 1.24092 9.90504 0.450922 8.33504C-0.339078 6.76504 -0.059078 5.09504 1.04092 4.61504ZM19.0409 4.61504C20.1409 5.09504 20.4209 6.76504 19.6309 8.33504C18.8409 9.90504 17.3009 10.785 16.1709 10.295C15.0409 9.80504 14.7809 8.14504 15.5409 6.56504C16.3509 5.01504 17.9009 4.12504 19.0409 4.61504ZM17.3709 15.395C17.4109 16.335 16.6909 17.375 15.8309 17.765C14.0409 18.585 11.9209 16.885 9.93092 16.885C7.94092 16.885 5.80092 18.655 4.04092 17.765C3.04092 17.275 2.35092 15.975 2.48092 14.895C2.66092 13.405 4.45092 12.605 5.51092 11.515C6.92092 10.105 7.92092 7.45504 9.93092 7.45504C11.9309 7.45504 12.9909 10.065 14.3409 11.515C15.4509 12.735 17.3009 13.765 17.3709 15.395Z" fill="#1DBEB4"/>
</svg>
