<svg width="23" height="22" viewBox="0 0 23 22" fill="none" xmlns="http://www.w3.org/2000/svg">
<path d="M13.53 0L12.45 1.08L14.05 2.68C14.27 2.93 14.38 3.22 14.38 3.55C14.38 3.88 14.27 4.19 14.05 4.41L10.5 8.02L11.5 9.1L15.13 5.49C15.66 4.9 15.92 4.25 15.92 3.55C15.92 2.85 15.66 2.19 15.13 1.6L13.53 0ZM9.55 2.02L8.47 3.1L9.08 3.66C9.3 3.88 9.41 4.18 9.41 4.55C9.41 4.92 9.3 5.22 9.08 5.44L8.47 6L9.55 7.08L10.11 6.47C10.64 5.88 10.91 5.24 10.91 4.55C10.91 3.83 10.64 3.18 10.11 2.58L9.55 2.02ZM20 3.61C19.31 3.61 18.67 3.88 18.08 4.41L12.45 10.05L13.53 11.05L19.11 5.49C19.36 5.24 19.66 5.11 20 5.11C20.34 5.11 20.64 5.24 20.89 5.49L21.5 6.1L22.53 5.02L21.97 4.41C21.38 3.88 20.72 3.61 20 3.61ZM6 6.55L1 20.55L15 15.55L6 6.55ZM18 9.61C17.3 9.61 16.66 9.88 16.06 10.41L14.47 12L15.55 13.08L17.14 11.49C17.39 11.24 17.67 11.11 18 11.11C18.33 11.11 18.63 11.24 18.88 11.49L20.5 13.08L21.55 12.05L19.95 10.41C19.36 9.88 18.7 9.61 18 9.61Z" fill="#1DBEB4"/>
<line x1="0.707107" y1="8.29289" x2="13.7071" y2="21.2929" stroke="#1DBEB4" stroke-width="2"/>
</svg>
